<svg
                xmlns="http://www.w3.org/2000/svg"
                version="1.1"
                width="36"
                height="36"
                viewBox="0 0 68 68"
                style="enable-background:new 0 0 512 512"
            >
                <g>
                    <circle
                        cx="34"
                        cy="34"
                        r="32"
                        fill="#0f87e1"
                        opacity="1"
                        data-original="#0fe1c2"
      
                    ></circle>
                    <path
                        fill="#147ecd"
                        d="M61.14 17.04C55.48 26.07 45.44 32.07 34 32.07s-21.48-6-27.14-15.03C12.51 8.01 22.56 2 34 2s21.49 6.01 27.14 15.04z"
                    ></path>
                    <path
                        fill="#ffffff"
                        d="M49.972 13.774v38.452c0 .41-.322.732-.732.732H18.76a.725.725 0 0 1-.732-.732V21.61h7.837c.41 0 .732-.322.732-.733v-7.836H49.24c.41 0 .732.322.732.732z"

                    ></path>
                    <path
                        fill="#155789"
                        d="M26.597 13.042v7.836c0 .41-.322.733-.732.733h-7.837z" 
                    ></path>
                    <path
                        fill="#a63914"
                        d="M38.745 19.832a2.45 2.45 0 0 1-.574 1.572l.023.04c.36.6.55 1.286.55 1.986v2.14c0 .473-.298.89-.746 1.039h-8.153a1.398 1.398 0 0 1-.755-1.243v-2.228a3.683 3.683 0 0 1 3.684-3.684h1.953c.621 0 1.235-.15 1.785-.432l.843-.44a.166.166 0 0 1 .242.147v.547h.966c.1 0 .182.081.182.182v.374z"
                    ></path>
                    <path
                        fill="#313b5a"
                        d="M42.44 37.997v3.855c0 .211-.171.382-.382.382H25.942a.382.382 0 0 1-.382-.382v-3.855a5.98 5.98 0 0 1 5.02-5.909c.004 0 .012 0 .016-.003.31-.044.62-.075.947-.075h4.922c.318 0 .633.031.94.075.007 0 .015.003.023.003a5.984 5.984 0 0 1 5.012 5.909z"
                    ></path>
                    <path
                        fill="#ffc0a4"
                        d="M39.185 26.676c0 .562-.456 1.018-1.018 1.018H38v-2.036h.168c.562 0 1.018.456 1.018 1.018z"
                    ></path>
                    <path
                        fill="#ffa87a"
                        d="M38.238 25.661v2.029c-.024.004-.048.004-.071.004h-.17v-2.037h.17c.023 0 .047 0 .07.004z"
                    ></path>
                    <path
                        fill="#ffc0a4"
                        d="M28.658 26.676c0 .562.456 1.018 1.018 1.018h.167v-2.036h-.167c-.562 0-1.018.456-1.018 1.018z"
                    ></path>
                    <path
                        fill="#ffa87a"
                        d="M29.845 25.657v2.037h-.17c-.023 0-.046 0-.07-.004V25.66c.024-.004.047-.004.07-.004z"
                    ></path>
                    <path
                        fill="#ffffff"
                        d="m37.428 32.088-1.368 4.678-2.058 5.468-2.058-5.468-1.364-4.674v-.004c.004 0 .012 0 .016-.003.31-.044.62-.075.947-.075h4.922c.318 0 .633.031.94.075.007 0 .015.003.023.003z"
                    ></path>
                    <path
                        fill="#d0f6ff"
                        d="m37.424 32.092-1.364 4.674-2.056-1.497H34l-2.056 1.497-1.364-4.674c.004-.004.012-.004.016-.007.31-.044.62-.075.947-.075h4.922c.318 0 .633.031.94.075l.019.007z"
                    ></path>
                    <path
                        fill="#ff3445"
                        d="m34.963 39.73-.961 2.504-.961-2.504.664-2.905-.538-.951.833-.605h.004l.833.605-.538.951z"
                    ></path>
                    <path
                        fill="#ffc0a4"
                        d="M36.51 29.819v2.51a2.51 2.51 0 1 1-5.02 0v-2.51z"
                    ></path>
                    <path
                        fill="#ffa87a"
                        d="M36.51 29.819v1.803a4.146 4.146 0 0 1-2.019.838 4.23 4.23 0 0 1-.575.036 4.307 4.307 0 0 1-2.426-.743V29.82z"
                    ></path>
                    <path
                        fill="#ffc0a4"
                        d="M38 24.601v3.414c0 2.078-1.486 3.92-3.543 4.185a4.079 4.079 0 0 1-4.614-4.042V24.6c0-.45.075-.885.21-1.29a.282.282 0 0 1 .27-.188H35.4c.442 0 .878-.121 1.264-.35l.424-.26a.28.28 0 0 1 .388.093c.336.59.523 1.268.523 1.995z"
                    ></path>
                    <path
                        fill="#20273a"
                        d="M40.904 37.349v.702a.096.096 0 0 1-.096.096H37.34a.096.096 0 0 1-.097-.096v-.702c0-.054.043-.091.097-.091h3.468c.053 0 .096.037.096.09z"
                    ></path>
                    <path
                        fill="#8fc8f5"
                        d="M46.736 45.865a.493.493 0 0 1-.492.491H21.756a.493.493 0 0 1-.492-.491.49.49 0 0 1 .492-.491h24.488a.49.49 0 0 1 .492.49zM39.112 48.832a.493.493 0 0 1-.49.492H21.755a.493.493 0 0 1-.492-.492.49.49 0 0 1 .492-.49H38.62a.49.49 0 0 1 .491.49zM42.81 48.832a.493.493 0 0 1-.492.492h-1.584a.493.493 0 0 1-.491-.492.49.49 0 0 1 .491-.49h1.584a.49.49 0 0 1 .491.49z"
                    ></path>
                    <path
                        d="M53.38 56.6c0 .761-8.713 1.379-19.459 1.379s-19.46-.618-19.46-1.38c0-.761 8.715-1.37 19.46-1.37s19.46.609 19.46 1.37z"
                          fill="#00000020"
                    ></path>
                </g>
            </svg>